<?xml version="1.0"?>
<svg xmlns="http://www.w3.org/2000/svg" height="512px" viewBox="0 0 512 512.00017" width="512px"><path d="m162.132812 418.132812h-8.53125c-4.714843 0-8.535156 3.820313-8.535156 8.535157 0 4.710937 3.820313 8.53125 8.535156 8.53125h8.53125c4.714844 0 8.535157-3.820313 8.535157-8.53125 0-4.714844-3.820313-8.535157-8.535157-8.535157zm0 0" fill="#2b3a42"/><path d="m256 418.132812h-59.734375c-4.710937 0-8.53125 3.820313-8.53125 8.535157 0 4.710937 3.820313 8.53125 8.53125 8.53125h59.734375c4.714844 0 8.535156-3.820313 8.535156-8.53125 0-4.714844-3.820312-8.535157-8.535156-8.535157zm0 0" fill="#2b3a42"/><path d="m298.667969 418.132812h-8.535157c-4.710937 0-8.53125 3.820313-8.53125 8.535157 0 4.710937 3.820313 8.53125 8.53125 8.53125h8.535157c4.710937 0 8.53125-3.820313 8.53125-8.53125 0-4.714844-3.820313-8.535157-8.53125-8.535157zm0 0" fill="#2b3a42"/><path d="m392.535156 418.132812h-59.734375c-4.714843 0-8.535156 3.820313-8.535156 8.535157 0 4.710937 3.820313 8.53125 8.535156 8.53125h59.734375c4.710938 0 8.53125-3.820313 8.53125-8.53125 0-4.714844-3.820312-8.535157-8.53125-8.535157zm0 0" fill="#2b3a42"/><path d="m162.132812 452.265625h-8.53125c-4.714843 0-8.535156 3.820313-8.535156 8.535156 0 4.710938 3.820313 8.53125 8.535156 8.53125h8.53125c4.714844 0 8.535157-3.820312 8.535157-8.53125 0-4.714843-3.820313-8.535156-8.535157-8.535156zm0 0" fill="#2b3a42"/><path d="m256 452.265625h-59.734375c-4.710937 0-8.53125 3.820313-8.53125 8.535156 0 4.710938 3.820313 8.53125 8.53125 8.53125h59.734375c4.714844 0 8.535156-3.820312 8.535156-8.53125 0-4.714843-3.820312-8.535156-8.535156-8.535156zm0 0" fill="#2b3a42"/><path d="m298.667969 452.265625h-8.535157c-4.710937 0-8.53125 3.820313-8.53125 8.535156 0 4.710938 3.820313 8.53125 8.53125 8.53125h8.535157c4.710937 0 8.53125-3.820312 8.53125-8.53125 0-4.714843-3.820313-8.535156-8.53125-8.535156zm0 0" fill="#2b3a42"/><path d="m392.535156 452.265625h-59.734375c-4.714843 0-8.535156 3.820313-8.535156 8.535156 0 4.710938 3.820313 8.53125 8.535156 8.53125h59.734375c4.710938 0 8.53125-3.820312 8.53125-8.53125 0-4.714843-3.820312-8.535156-8.53125-8.535156zm0 0" fill="#2b3a42"/><path d="m384 110.933594h-221.867188c-9.425781 0-17.066406 7.640625-17.066406 17.066406v136.535156c0 9.425782 7.640625 17.066406 17.066406 17.066406h221.867188c9.425781 0 17.066406-7.640624 17.066406-17.066406v-136.535156c0-9.425781-7.640625-17.066406-17.066406-17.066406zm-221.867188 23.167968 95.308594 62.164063-95.308594 62.167969zm21.886719-6.101562h178.09375l-89.046875 58.078125zm89.046875 78.457031 89.046875 58.078125h-178.09375zm15.625-10.191406 95.308594-62.164063v124.332032zm0 0" fill="#2b3a42"/><path d="m259.910156 304.042969c-.0625-.078125-.15625-.109375-.222656-.1875-3.203125-3.316407-7.613281-5.1875-12.222656-5.1875h-85.332032c-9.425781 0-17.066406 7.640625-17.066406 17.066406v68.265625c0 9.425781 7.640625 17.066406 17.066406 17.066406h85.332032c9.425781 0 17.070312-7.640625 17.070312-17.066406v-68.265625c-.015625-4.230469-1.609375-8.304687-4.472656-11.417969-.070312-.085937-.078125-.1875-.152344-.273437zm-27.386718 11.691406-70.390626 58.570313v-58.570313zm-55.363282 68.265625 70.304688-58.503906v58.503906zm0 0" fill="#2b3a42"/><path d="m396.441406 304.042969c-.058594-.078125-.152344-.109375-.222656-.1875-3.199219-3.316407-7.609375-5.1875-12.21875-5.1875h-85.332031c-9.425781 0-17.066407 7.640625-17.066407 17.066406v68.265625c0 9.425781 7.640626 17.066406 17.066407 17.066406h85.332031c9.425781 0 17.066406-7.640625 17.066406-17.066406v-68.265625c-.011718-4.230469-1.609375-8.304687-4.472656-11.417969-.066406-.085937-.074219-.1875-.152344-.273437zm-27.382812 11.691406-70.390625 58.570313v-58.570313zm-55.363282 68.265625 70.304688-58.503906v58.503906zm0 0" fill="#2b3a42"/><path d="m469.332031 0c-23.550781.0273438-42.636719 19.113281-42.664062 42.667969v25.597656h-307.203125v-51.199219c0-9.425781-7.640625-17.066406-17.066406-17.066406h-51.199219c-9.425781 0-17.066407 7.640625-17.066407 17.066406v51.199219h-17.066406c-9.425781 0-17.066406 7.640625-17.066406 17.066406v409.601563c0 9.425781 7.640625 17.066406 17.066406 17.066406h452.265625c11.296875.03125 22.144531-4.433594 30.144531-12.40625 8.003907-7.972656 12.511719-18.800781 12.523438-30.097656 0-.058594 0-.101563 0-.164063v-426.664062c-.027344-23.554688-19.113281-42.6406252-42.667969-42.667969zm-25.597656 42.667969c0-14.140625 11.460937-25.601563 25.597656-25.601563 14.140625 0 25.601563 11.460938 25.601563 25.601563v392.421875c-4.605469-3.453125-9.871094-5.921875-15.472656-7.253906-12.402344-3.027344-25.507813-.347657-35.726563 7.304687zm-392.535156-25.601563h51.199219v25.601563h-17.066407c-4.710937 0-8.53125 3.820312-8.53125 8.53125 0 4.714843 3.820313 8.535156 8.53125 8.535156h17.066407v17.066406h-8.53125c-4.714844 0-8.535157 3.820313-8.535157 8.53125 0 4.714844 3.820313 8.535157 8.535157 8.535157h8.53125v17.066406h-8.53125c-4.714844 0-8.535157 3.820312-8.535157 8.53125 0 4.714844 3.820313 8.535156 8.535157 8.535156h8.53125v17.066406h-17.066407c-4.710937 0-8.53125 3.820313-8.53125 8.535156 0 4.710938 3.820313 8.53125 8.53125 8.53125h17.066407v17.066407h-8.53125c-4.714844 0-8.535157 3.820312-8.535157 8.535156 0 4.710937 3.820313 8.53125 8.535157 8.53125h8.53125v17.066406h-8.53125c-4.714844 0-8.535157 3.820313-8.535157 8.535157 0 4.710937 3.820313 8.53125 8.535157 8.53125h8.53125v17.066406h-17.066407c-4.710937 0-8.53125 3.824218-8.53125 8.535156s3.820313 8.535156 8.53125 8.535156h17.066407v17.066406h-8.53125c-4.714844 0-8.535157 3.820313-8.535157 8.53125 0 4.714844 3.820313 8.535157 8.535157 8.535157h8.53125v17.066406h-8.53125c-4.714844 0-8.535157 3.820313-8.535157 8.53125 0 4.714844 3.820313 8.535156 8.535157 8.535156h8.53125v17.066407h-17.066407c-4.710937 0-8.53125 3.820312-8.53125 8.53125 0 4.714843 3.820313 8.535156 8.53125 8.535156h17.066407v25.601562h-51.199219zm438.179687 468.214844c-4.851562 6.117188-12.238281 9.671875-20.046875 9.652344h-452.265625v-409.601563h17.066406v307.203125c0 9.425782 7.640626 17.066406 17.066407 17.066406h51.199219c9.425781 0 17.066406-7.640624 17.066406-17.066406v-307.203125h307.203125v359.765625c.023437 5.492188 3.503906 10.375 8.6875 12.1875 5.050781 1.835938 10.714843.226563 14.042969-3.996094 8.835937-11.039062 24.945312-12.828124 35.984374-3.992187 11.042969 8.835937 12.828126 24.945313 3.996094 35.984375zm0 0" fill="#2b3a42"/></svg>
